<svg width="183" height="153" viewBox="0 0 183 153" fill="none" xmlns="http://www.w3.org/2000/svg">
<path d="M88.5 10C99.4186 10 109.374 14.119 116.901 20.8857C116.676 20.8163 116.449 20.7511 116.221 20.6895C113.449 18.3855 109.886 17 106 17C98.1693 17 91.6537 22.6256 90.2715 30.0557C85.7076 26.8699 80.1569 25.0001 74.1689 25C58.6119 25 46 37.6119 46 53.1689V52.5C46 29.0279 65.0279 10 88.5 10Z" fill="#CE9B2A"/>
<circle cx="105" cy="32" r="10" fill="#0D3DA7"/>
<path d="M133.5 25L136.571 30.2729L142.535 31.5643L138.469 36.1146L139.084 42.1857L133.5 39.725L127.916 42.1857L128.531 36.1146L124.465 31.5643L130.429 30.2729L133.5 25Z" fill="#FFC321"/>
<path d="M58.5 31C69.8218 31 79 40.1782 79 51.5V114.958L46 146.176V53.1689C46 44.2157 50.1777 36.2388 56.6895 31.0791C57.286 31.0269 57.8899 31 58.5 31ZM46 52.5V52L46.0039 51.96C46.0016 52.1397 46 52.3197 46 52.5ZM46.3242 47.2334L46.3223 47.2363C46.3239 47.2288 46.3255 47.2213 46.3271 47.2139C46.3263 47.2204 46.325 47.2269 46.3242 47.2334Z" fill="#FFC321"/>
<path d="M105 46C112.732 46 119 52.268 119 60V77.1182L91 103.606V60C91 52.268 97.268 46 105 46Z" fill="#0D3DA7"/>
<path d="M133 46C137.971 46 142 50.0294 142 55V55.3594L124 72.3877V55C124 50.0294 128.029 46 133 46Z" fill="#FFC321"/>
<path d="M114.5 152V112L144.5 80.5V145H155V152H114.5Z" fill="#FFC321"/>
<path d="M144.5 92.5L114.5 127.5V111L144.5 80V92.5Z" fill="#CE9B2A"/>
<path d="M85.5 152.5H48L157 49L148 40L182.5 31.5L176 68L166 58L85.5 152.5Z" fill="#0D3DA7"/>
<path d="M0 152V145H40V152H0Z" fill="#0D3DA7"/>
<path d="M69.5 0C77.0511 0 84.268 1.43104 90.8945 4.03613C90.266 4.01224 89.6344 4 89 4C61.938 4 40 25.938 40 53V147H11V58.5C11 26.1913 37.1913 0 69.5 0Z" fill="#0D3DA7"/>
</svg>
